<?xml version="1.0" encoding="iso-8859-1"?>
<!-- Generator: Adobe Illustrator 19.0.0, SVG Export Plug-In . SVG Version: 6.00 Build 0)  -->
<svg version="1.1" id="Layer_1" xmlns="http://www.w3.org/2000/svg" xmlns:xlink="http://www.w3.org/1999/xlink" x="0px" y="0px"
	 viewBox="0 0 383.2 383.2" style="enable-background:new 0 0 383.2 383.2;" xml:space="preserve" fill='rgb(9, 129, 233)'>
<g>
	<g>
		<path d="M341.2,2.5c-1.5-1.6-3.5-2.5-5.6-2.5h-288c-2.2,0-4.2,0.9-5.6,2.5s-2.1,3.7-1.9,5.8l28,290.1c1.7,21.3,6.9,38.2,15.4,50.2
			c0,0.1,0.1,0.1,0.1,0.2c11.2,14.8,28.5,34.4,49.3,34.4h116l0,0c17,0,38.2-17.8,49.6-34.8c8.5-12,13.6-28.9,15.3-50.1l29.3-290
			C343.3,6.2,342.6,4.1,341.2,2.5z M298.9,297.1c0,0.1,0,0.1,0,0.2c-1.5,18.3-5.8,33.1-12.7,42.7l-0.1,0.1
			c-10.3,15.2-27.3,28.1-37.1,28.1H133c-10.6,0-22.8-9.2-37.3-28.3h0c-6.8-9.7-11.2-24.4-12.5-42.7v-0.1L56,15.2h271.4L298.9,297.1z
			"/>
	</g>
</g>
<g>
</g>
<g>
</g>
<g>
</g>
<g>
</g>
<g>
</g>
<g>
</g>
<g>
</g>
<g>
</g>
<g>
</g>
<g>
</g>
<g>
</g>
<g>
</g>
<g>
</g>
<g>
</g>
<g>
</g>
</svg>
